<svg width="32" height="26" viewBox="0 0 32 26" fill="none" xmlns="http://www.w3.org/2000/svg">
<path d="M2 11.0001H14V13.0001H2V11.0001Z" fill="white"/>
<path d="M0 6.00012H10V8.00012H0V6.00012Z" fill="white"/>
<path d="M31.1135 12.4887L27.7309 4.5961C27.6441 4.39324 27.4997 4.22034 27.3154 4.09886C27.1312 3.97739 26.9154 3.9127 26.6947 3.91282H23.3122V1.65779C23.3122 1.35875 23.1934 1.07197 22.982 0.860516C22.7705 0.649065 22.4837 0.530273 22.1847 0.530273H4.14441V2.78531H21.0572V16.9424C20.5434 17.2407 20.0938 17.6378 19.7342 18.1108C19.3746 18.5838 19.1123 19.1232 18.9622 19.6981H11.8769C11.6025 18.6352 10.9498 17.7089 10.0413 17.0928C9.13278 16.4767 8.03075 16.2131 6.94178 16.3515C5.85281 16.4898 4.85166 17.0205 4.12601 17.8442C3.40035 18.6678 3 19.7279 3 20.8256C3 21.9233 3.40035 22.9833 4.12601 23.807C4.85166 24.6307 5.85281 25.1614 6.94178 25.2997C8.03075 25.438 9.13278 25.1744 10.0413 24.5583C10.9498 23.9422 11.6025 23.016 11.8769 21.9531H18.9622C19.2075 22.9208 19.7684 23.779 20.5563 24.3921C21.3441 25.0052 22.3139 25.338 23.3122 25.338C24.3105 25.338 25.2802 25.0052 26.0681 24.3921C26.8559 23.779 27.4169 22.9208 27.6622 21.9531H30.0773C30.3763 21.9531 30.6631 21.8343 30.8746 21.6229C31.086 21.4114 31.2048 21.1246 31.2048 20.8256V12.933C31.2049 12.7802 31.1738 12.6291 31.1135 12.4887ZM7.52696 23.0806C7.08096 23.0806 6.64497 22.9484 6.27413 22.7006C5.90329 22.4528 5.61426 22.1006 5.44358 21.6885C5.2729 21.2765 5.22825 20.8231 5.31526 20.3856C5.40227 19.9482 5.61704 19.5464 5.93241 19.231C6.24778 18.9157 6.64959 18.7009 7.08703 18.6139C7.52446 18.5269 7.97787 18.5715 8.38992 18.7422C8.80198 18.9129 9.15417 19.2019 9.40195 19.5727C9.64974 19.9436 9.78199 20.3796 9.78199 20.8256C9.7814 21.4235 9.54362 21.9967 9.12085 22.4195C8.69808 22.8422 8.12485 23.08 7.52696 23.0806ZM23.3122 6.16786H25.9506L28.368 11.8054H23.3122V6.16786ZM23.3122 23.0806C22.8662 23.0806 22.4302 22.9484 22.0594 22.7006C21.6885 22.4528 21.3995 22.1006 21.2288 21.6885C21.0581 21.2765 21.0135 20.8231 21.1005 20.3856C21.1875 19.9482 21.4023 19.5464 21.7176 19.231C22.033 18.9157 22.4348 18.7009 22.8723 18.6139C23.3097 18.5269 23.7631 18.5715 24.1752 18.7422C24.5872 18.9129 24.9394 19.2019 25.1872 19.5727C25.435 19.9436 25.5672 20.3796 25.5672 20.8256C25.5666 21.4235 25.3289 21.9967 24.9061 22.4195C24.4833 22.8422 23.9101 23.08 23.3122 23.0806ZM28.9498 19.6981H27.6622C27.4138 18.7323 26.852 17.8762 26.0647 17.264C25.2775 16.6519 24.3094 16.3183 23.3122 16.3155V14.0605H28.9498V19.6981Z" fill="white"/>
</svg>
