<svg width="32" height="32" viewBox="0 0 32 32" fill="none" xmlns="http://www.w3.org/2000/svg">
<path d="M30.1179 8.46583H24.5012C25.0187 7.64988 25.3231 6.68141 25.3231 5.64431C25.3231 2.74273 22.9676 0.382568 20.0717 0.382568C18.4963 0.382568 17.0769 1.08413 16.1141 2.18986C15.1514 1.08413 13.732 0.382568 12.1565 0.382568C9.26065 0.382568 6.90512 2.74273 6.90512 5.64431C6.90512 6.68141 7.20575 7.64988 7.72708 8.46583H2.11036C1.43681 8.46583 0.892639 9.01107 0.892639 9.68594V17.3117C0.892639 17.4794 1.02963 17.6167 1.19707 17.6167H2.71922V30.7329C2.71922 31.4078 3.26338 31.953 3.93693 31.953H28.2913C28.9648 31.953 29.509 31.4078 29.509 30.7329V17.6167H31.0312C31.1986 17.6167 31.3356 17.4794 31.3356 17.3117V9.68594C31.3356 9.01107 30.7914 8.46583 30.1179 8.46583ZM17.4079 5.64431C17.4079 4.17255 18.6028 2.97531 20.0717 2.97531C21.5406 2.97531 22.7355 4.17255 22.7355 5.64431C22.7355 7.11608 21.5406 8.31331 20.0717 8.31331H17.4079V5.64431ZM12.1565 2.97531C13.6254 2.97531 14.8203 4.17255 14.8203 5.64431V8.31331H12.1565C10.6877 8.31331 9.49277 7.11608 9.49277 5.64431C9.49277 4.17255 10.6877 2.97531 12.1565 2.97531ZM3.48029 15.0239V11.0586H14.8203V15.0239H3.48029ZM5.30687 17.6167H14.8203V29.3603H5.30687V17.6167ZM26.9214 29.3603H17.4079V17.6167H26.9214V29.3603ZM28.7479 15.0239H17.4079V11.0586H28.7479V15.0239Z" fill="white"/>
</svg>
