<svg width="38" height="27" viewBox="0 0 38 27" fill="none" xmlns="http://www.w3.org/2000/svg">
<path d="M0 0.402832V14.81H37.2081V11.9286H20.0351V9.04713H37.2081V6.1657H20.0351V3.28426H37.2081V0.402832H0ZM2.86216 1.84355C3.2417 1.84355 3.6057 1.99534 3.87408 2.26552C4.14246 2.53571 4.29324 2.90216 4.29324 3.28426C4.29324 3.66637 4.14246 4.03282 3.87408 4.303C3.6057 4.57319 3.2417 4.72498 2.86216 4.72498C2.48261 4.72498 2.11861 4.57319 1.85023 4.303C1.58185 4.03282 1.43108 3.66637 1.43108 3.28426C1.43108 2.90216 1.58185 2.53571 1.85023 2.26552C2.11861 1.99534 2.48261 1.84355 2.86216 1.84355ZM8.58647 1.84355C8.96602 1.84355 9.33002 1.99534 9.5984 2.26552C9.86678 2.53571 10.0176 2.90216 10.0176 3.28426C10.0176 3.66637 9.86678 4.03282 9.5984 4.303C9.33002 4.57319 8.96602 4.72498 8.58647 4.72498C8.20693 4.72498 7.84293 4.57319 7.57455 4.303C7.30617 4.03282 7.1554 3.66637 7.1554 3.28426C7.1554 2.90216 7.30617 2.53571 7.57455 2.26552C7.84293 1.99534 8.20693 1.84355 8.58647 1.84355ZM14.3108 1.84355C14.6903 1.84355 15.0543 1.99534 15.3227 2.26552C15.5911 2.53571 15.7419 2.90216 15.7419 3.28426C15.7419 3.66637 15.5911 4.03282 15.3227 4.303C15.0543 4.57319 14.6903 4.72498 14.3108 4.72498C13.9312 4.72498 13.5672 4.57319 13.2989 4.303C13.0305 4.03282 12.8797 3.66637 12.8797 3.28426C12.8797 2.90216 13.0305 2.53571 13.2989 2.26552C13.5672 1.99534 13.9312 1.84355 14.3108 1.84355ZM5.72432 6.1657C6.10386 6.1657 6.46786 6.31749 6.73624 6.58767C7.00462 6.85786 7.1554 7.22431 7.1554 7.60641C7.1554 7.98851 7.00462 8.35497 6.73624 8.62515C6.46786 8.89534 6.10386 9.04713 5.72432 9.04713C5.34477 9.04713 4.98077 8.89534 4.71239 8.62515C4.44401 8.35497 4.29324 7.98851 4.29324 7.60641C4.29324 7.22431 4.44401 6.85786 4.71239 6.58767C4.98077 6.31749 5.34477 6.1657 5.72432 6.1657ZM11.4486 6.1657C11.8282 6.1657 12.1922 6.31749 12.4606 6.58767C12.7289 6.85786 12.8797 7.22431 12.8797 7.60641C12.8797 7.98851 12.7289 8.35497 12.4606 8.62515C12.1922 8.89534 11.8282 9.04713 11.4486 9.04713C11.0691 9.04713 10.7051 8.89534 10.4367 8.62515C10.1683 8.35497 10.0176 7.98851 10.0176 7.60641C10.0176 7.22431 10.1683 6.85786 10.4367 6.58767C10.7051 6.31749 11.0691 6.1657 11.4486 6.1657ZM17.1729 6.1657C17.5525 6.1657 17.9165 6.31749 18.1849 6.58767C18.4533 6.85786 18.604 7.22431 18.604 7.60641C18.604 7.98851 18.4533 8.35497 18.1849 8.62515C17.9165 8.89534 17.5525 9.04713 17.1729 9.04713C16.7934 9.04713 16.4294 8.89534 16.161 8.62515C15.8926 8.35497 15.7419 7.98851 15.7419 7.60641C15.7419 7.22431 15.8926 6.85786 16.161 6.58767C16.4294 6.31749 16.7934 6.1657 17.1729 6.1657ZM2.86216 10.4878C3.2417 10.4878 3.6057 10.6396 3.87408 10.9098C4.14246 11.18 4.29324 11.5465 4.29324 11.9286C4.29324 12.3107 4.14246 12.6771 3.87408 12.9473C3.6057 13.2175 3.2417 13.3693 2.86216 13.3693C2.48261 13.3693 2.11861 13.2175 1.85023 12.9473C1.58185 12.6771 1.43108 12.3107 1.43108 11.9286C1.43108 11.5465 1.58185 11.18 1.85023 10.9098C2.11861 10.6396 2.48261 10.4878 2.86216 10.4878ZM8.58647 10.4878C8.96602 10.4878 9.33002 10.6396 9.5984 10.9098C9.86678 11.18 10.0176 11.5465 10.0176 11.9286C10.0176 12.3107 9.86678 12.6771 9.5984 12.9473C9.33002 13.2175 8.96602 13.3693 8.58647 13.3693C8.20693 13.3693 7.84293 13.2175 7.57455 12.9473C7.30617 12.6771 7.1554 12.3107 7.1554 11.9286C7.1554 11.5465 7.30617 11.18 7.57455 10.9098C7.84293 10.6396 8.20693 10.4878 8.58647 10.4878ZM14.3108 10.4878C14.6903 10.4878 15.0543 10.6396 15.3227 10.9098C15.5911 11.18 15.7419 11.5465 15.7419 11.9286C15.7419 12.3107 15.5911 12.6771 15.3227 12.9473C15.0543 13.2175 14.6903 13.3693 14.3108 13.3693C13.9312 13.3693 13.5672 13.2175 13.2989 12.9473C13.0305 12.6771 12.8797 12.3107 12.8797 11.9286C12.8797 11.5465 13.0305 11.18 13.2989 10.9098C13.5672 10.6396 13.9312 10.4878 14.3108 10.4878ZM0 17.6914V20.5729H37.2081V17.6914H0ZM0 23.4543V26.3357H37.2081V23.4543H0Z" fill="#DCB058"/>
</svg>
